<mxfile host="app.diagrams.net" modified="2023-05-29T23:41:44.028Z" agent="Mozilla/5.0 (X11; Linux x86_64; rv:109.0) Gecko/20100101 Firefox/113.0" etag="F_mTTUiDqixdm1tFTE13" version="21.3.5" type="github">
  <diagram id="C5RBs43oDa-KdzZeNtuy" name="Page-1">
    <mxGraphModel dx="1877" dy="574" grid="1" gridSize="10" guides="1" tooltips="1" connect="1" arrows="1" fold="1" page="1" pageScale="1" pageWidth="827" pageHeight="1169" math="0" shadow="0">
      <root>
        <mxCell id="WIyWlLk6GJQsqaUBKTNV-0" />
        <mxCell id="WIyWlLk6GJQsqaUBKTNV-1" parent="WIyWlLk6GJQsqaUBKTNV-0" />
        <mxCell id="Z_bERvagfSh-LM22lko9-0" value="Start" style="rounded=1;whiteSpace=wrap;html=1;align=center;arcSize=37;" parent="WIyWlLk6GJQsqaUBKTNV-1" vertex="1">
          <mxGeometry x="120" y="80" width="120" height="60" as="geometry" />
        </mxCell>
        <mxCell id="Z_bERvagfSh-LM22lko9-2" value="input: int n" style="shape=parallelogram;perimeter=parallelogramPerimeter;whiteSpace=wrap;html=1;fixedSize=1;" parent="WIyWlLk6GJQsqaUBKTNV-1" vertex="1">
          <mxGeometry x="120" y="180" width="120" height="60" as="geometry" />
        </mxCell>
        <mxCell id="Z_bERvagfSh-LM22lko9-3" value="Set a variable equal n (int nCopy)&lt;br&gt;Set up a while loop (condition: nCopy is greater than 0)&lt;br&gt;Print -&lt;br&gt;Decrease nCopy by 1&lt;br&gt;Print \n" style="text;html=1;align=center;verticalAlign=middle;resizable=0;points=[];autosize=1;strokeColor=none;fillColor=none;" parent="WIyWlLk6GJQsqaUBKTNV-1" vertex="1">
          <mxGeometry x="517" width="310" height="90" as="geometry" />
        </mxCell>
        <mxCell id="Z_bERvagfSh-LM22lko9-4" value="" style="endArrow=classic;html=1;rounded=0;exitX=0.5;exitY=1;exitDx=0;exitDy=0;entryX=0.5;entryY=0;entryDx=0;entryDy=0;" parent="WIyWlLk6GJQsqaUBKTNV-1" source="Z_bERvagfSh-LM22lko9-0" target="Z_bERvagfSh-LM22lko9-2" edge="1">
          <mxGeometry width="50" height="50" relative="1" as="geometry">
            <mxPoint x="290" y="180" as="sourcePoint" />
            <mxPoint x="340" y="130" as="targetPoint" />
          </mxGeometry>
        </mxCell>
        <mxCell id="Z_bERvagfSh-LM22lko9-8" value="&lt;div&gt;initialize int nCopy&lt;/div&gt;&lt;div&gt;n&lt;br&gt;&lt;/div&gt;" style="rounded=0;whiteSpace=wrap;html=1;" parent="WIyWlLk6GJQsqaUBKTNV-1" vertex="1">
          <mxGeometry x="120" y="495" width="120" height="60" as="geometry" />
        </mxCell>
        <mxCell id="Z_bERvagfSh-LM22lko9-10" value="" style="endArrow=classic;html=1;rounded=0;exitX=0.5;exitY=1;exitDx=0;exitDy=0;" parent="WIyWlLk6GJQsqaUBKTNV-1" source="Z_bERvagfSh-LM22lko9-2" edge="1">
          <mxGeometry width="50" height="50" relative="1" as="geometry">
            <mxPoint x="179.58" y="250" as="sourcePoint" />
            <mxPoint x="180" y="270" as="targetPoint" />
          </mxGeometry>
        </mxCell>
        <mxCell id="Z_bERvagfSh-LM22lko9-14" value="&lt;div&gt;condition:&lt;/div&gt;&lt;div&gt;if nCopy &amp;gt; 0&lt;br&gt;&lt;/div&gt;" style="rhombus;whiteSpace=wrap;html=1;" parent="WIyWlLk6GJQsqaUBKTNV-1" vertex="1">
          <mxGeometry x="135" y="575" width="90" height="90" as="geometry" />
        </mxCell>
        <mxCell id="Z_bERvagfSh-LM22lko9-15" value="" style="endArrow=classic;html=1;rounded=0;exitX=0.5;exitY=1;exitDx=0;exitDy=0;" parent="WIyWlLk6GJQsqaUBKTNV-1" edge="1" source="EJ6lxvWMxMobthnyHd17-1">
          <mxGeometry width="50" height="50" relative="1" as="geometry">
            <mxPoint x="179.5" y="380" as="sourcePoint" />
            <mxPoint x="179.84" y="400" as="targetPoint" />
          </mxGeometry>
        </mxCell>
        <mxCell id="Z_bERvagfSh-LM22lko9-17" value="" style="endArrow=classic;html=1;rounded=0;" parent="WIyWlLk6GJQsqaUBKTNV-1" edge="1">
          <mxGeometry width="50" height="50" relative="1" as="geometry">
            <mxPoint x="179.66" y="665" as="sourcePoint" />
            <mxPoint x="179.66" y="705" as="targetPoint" />
          </mxGeometry>
        </mxCell>
        <mxCell id="Z_bERvagfSh-LM22lko9-18" value="True" style="edgeLabel;html=1;align=center;verticalAlign=middle;resizable=0;points=[];" parent="Z_bERvagfSh-LM22lko9-17" vertex="1" connectable="0">
          <mxGeometry x="-0.4776" y="1" relative="1" as="geometry">
            <mxPoint x="19" y="10" as="offset" />
          </mxGeometry>
        </mxCell>
        <mxCell id="Z_bERvagfSh-LM22lko9-21" value="" style="endArrow=classic;html=1;rounded=0;exitX=1;exitY=0.5;exitDx=0;exitDy=0;" parent="WIyWlLk6GJQsqaUBKTNV-1" source="Z_bERvagfSh-LM22lko9-14" edge="1">
          <mxGeometry width="50" height="50" relative="1" as="geometry">
            <mxPoint x="270" y="515" as="sourcePoint" />
            <mxPoint x="300" y="490" as="targetPoint" />
          </mxGeometry>
        </mxCell>
        <mxCell id="Z_bERvagfSh-LM22lko9-25" value="False" style="edgeLabel;html=1;align=center;verticalAlign=middle;resizable=0;points=[];" parent="Z_bERvagfSh-LM22lko9-21" vertex="1" connectable="0">
          <mxGeometry x="-0.5022" relative="1" as="geometry">
            <mxPoint x="6" as="offset" />
          </mxGeometry>
        </mxCell>
        <mxCell id="Z_bERvagfSh-LM22lko9-24" value="" style="endArrow=classic;html=1;rounded=0;exitX=0.5;exitY=1;exitDx=0;exitDy=0;entryX=0;entryY=0.5;entryDx=0;entryDy=0;" parent="WIyWlLk6GJQsqaUBKTNV-1" target="Z_bERvagfSh-LM22lko9-14" edge="1">
          <mxGeometry width="50" height="50" relative="1" as="geometry">
            <mxPoint x="180" y="855" as="sourcePoint" />
            <mxPoint x="130" y="620" as="targetPoint" />
            <Array as="points">
              <mxPoint x="180" y="905" />
              <mxPoint x="80" y="905" />
              <mxPoint x="80" y="620" />
            </Array>
          </mxGeometry>
        </mxCell>
        <mxCell id="Z_bERvagfSh-LM22lko9-31" value="" style="strokeWidth=2;html=1;shape=mxgraph.flowchart.annotation_2;align=left;labelPosition=right;pointerEvents=1;rotation=-180;dashed=1;" parent="WIyWlLk6GJQsqaUBKTNV-1" vertex="1">
          <mxGeometry x="-40" y="539.29" width="50" height="71.43" as="geometry" />
        </mxCell>
        <mxCell id="Z_bERvagfSh-LM22lko9-32" value="" style="endArrow=classic;html=1;rounded=0;exitX=0;exitY=0.5;exitDx=0;exitDy=0;exitPerimeter=0;entryX=0;entryY=0;entryDx=0;entryDy=0;dashed=1;" parent="WIyWlLk6GJQsqaUBKTNV-1" source="Z_bERvagfSh-LM22lko9-31" target="Z_bERvagfSh-LM22lko9-14" edge="1">
          <mxGeometry width="50" height="50" relative="1" as="geometry">
            <mxPoint x="30" y="470.01" as="sourcePoint" />
            <mxPoint x="80" y="420.01" as="targetPoint" />
          </mxGeometry>
        </mxCell>
        <mxCell id="Z_bERvagfSh-LM22lko9-33" value="&lt;div&gt;While &lt;br&gt;&lt;/div&gt;&lt;div&gt;loop condition&lt;/div&gt;" style="text;html=1;align=center;verticalAlign=middle;resizable=0;points=[];autosize=1;strokeColor=none;fillColor=none;" parent="WIyWlLk6GJQsqaUBKTNV-1" vertex="1">
          <mxGeometry x="-105" y="550" width="100" height="40" as="geometry" />
        </mxCell>
        <mxCell id="Z_bERvagfSh-LM22lko9-34" value="" style="strokeWidth=2;html=1;shape=mxgraph.flowchart.annotation_2;align=left;labelPosition=right;pointerEvents=1;rotation=0;dashed=1;" parent="WIyWlLk6GJQsqaUBKTNV-1" vertex="1">
          <mxGeometry x="384" y="20" width="22" height="31.43" as="geometry" />
        </mxCell>
        <mxCell id="Z_bERvagfSh-LM22lko9-35" value="" style="endArrow=classic;html=1;rounded=0;exitX=0;exitY=0.5;exitDx=0;exitDy=0;exitPerimeter=0;entryX=1;entryY=0.5;entryDx=0;entryDy=0;dashed=1;" parent="WIyWlLk6GJQsqaUBKTNV-1" source="Z_bERvagfSh-LM22lko9-34" target="Z_bERvagfSh-LM22lko9-0" edge="1">
          <mxGeometry width="50" height="50" relative="1" as="geometry">
            <mxPoint x="435" y="90.71999999999997" as="sourcePoint" />
            <mxPoint x="563" y="88.70999999999998" as="targetPoint" />
          </mxGeometry>
        </mxCell>
        <mxCell id="Z_bERvagfSh-LM22lko9-36" value="main function" style="text;html=1;align=center;verticalAlign=middle;resizable=0;points=[];autosize=1;strokeColor=none;fillColor=none;" parent="WIyWlLk6GJQsqaUBKTNV-1" vertex="1">
          <mxGeometry x="390" y="19.99999999999998" width="90" height="30" as="geometry" />
        </mxCell>
        <mxCell id="EJ6lxvWMxMobthnyHd17-0" value="input: int n" style="shape=parallelogram;perimeter=parallelogramPerimeter;whiteSpace=wrap;html=1;fixedSize=1;" vertex="1" parent="WIyWlLk6GJQsqaUBKTNV-1">
          <mxGeometry x="120" y="270" width="120" height="60" as="geometry" />
        </mxCell>
        <mxCell id="EJ6lxvWMxMobthnyHd17-2" value="" style="endArrow=classic;html=1;rounded=0;exitX=0.5;exitY=1;exitDx=0;exitDy=0;" edge="1" parent="WIyWlLk6GJQsqaUBKTNV-1" target="EJ6lxvWMxMobthnyHd17-1">
          <mxGeometry width="50" height="50" relative="1" as="geometry">
            <mxPoint x="179.5" y="380" as="sourcePoint" />
            <mxPoint x="179.84" y="400" as="targetPoint" />
          </mxGeometry>
        </mxCell>
        <mxCell id="EJ6lxvWMxMobthnyHd17-1" value="input: int n" style="shape=parallelogram;perimeter=parallelogramPerimeter;whiteSpace=wrap;html=1;fixedSize=1;" vertex="1" parent="WIyWlLk6GJQsqaUBKTNV-1">
          <mxGeometry x="120" y="370" width="120" height="60" as="geometry" />
        </mxCell>
      </root>
    </mxGraphModel>
  </diagram>
</mxfile>
